<?xml version="1.0" standalone="no"?>
<!DOCTYPE svg PUBLIC "-//W3C//DTD SVG 20010904//EN"
 "http://www.w3.org/TR/2001/REC-SVG-20010904/DTD/svg10.dtd">
<svg version="1.0" xmlns="http://www.w3.org/2000/svg"
 width="512.000000pt" height="512.000000pt" viewBox="0 0 512.000000 512.000000"
 preserveAspectRatio="xMidYMid meet">
<metadata>
Created by potrace 1.11, written by Peter Selinger 2001-2013
</metadata>
<g transform="translate(0.000000,512.000000) scale(0.100000,-0.100000)"
fill="#000000" stroke="none">
<path d="M0 2560 l0 -2560 2560 0 2560 0 0 2560 0 2560 -2560 0 -2560 0 0
-2560z m3945 2457 c196 -23 377 -53 495 -83 221 -58 423 -166 500 -268 59 -77
70 -120 70 -257 0 -319 -103 -764 -266 -1146 -136 -319 -272 -551 -397 -676
-119 -119 -148 -137 -213 -137 -43 0 -124 20 -124 30 0 4 -14 14 -32 21 -60
25 -189 131 -265 218 -308 352 -623 1058 -718 1606 -41 239 -39 443 5 543 46
102 120 146 285 166 83 10 523 -2 660 -17z m-1800 -108 c-71 -79 -99 -183 -99
-374 0 -422 233 -1135 615 -1885 305 -597 543 -905 792 -1026 86 -41 157 -50
260 -35 43 7 81 11 83 9 6 -7 -229 -351 -330 -482 -396 -514 -779 -866 -1072
-983 -169 -68 -268 -66 -429 11 -153 73 -298 191 -476 384 -556 604 -1177
1950 -1350 2930 -13 74 -23 182 -26 293 -11 357 48 481 310 657 313 209 886
401 1527 512 91 16 180 29 199 29 l33 1 -37 -41z"/>
</g>
</svg>
